<mxfile host="app.diagrams.net" agent="Mozilla/5.0 (Windows NT 10.0; Win64; x64) AppleWebKit/537.36 (KHTML, like Gecko) Chrome/130.0.0.0 Safari/537.36" version="24.8.3">
  <diagram id="R2lEEEUBdFMjLlhIrx00" name="Page-1">
    <mxGraphModel grid="1" page="1" gridSize="10" guides="1" tooltips="1" connect="1" arrows="1" fold="1" pageScale="1" pageWidth="850" pageHeight="1100" math="0" shadow="0" extFonts="Permanent Marker^https://fonts.googleapis.com/css?family=Permanent+Marker">
      <root>
        <mxCell id="0" />
        <mxCell id="1" parent="0" />
        <mxCell id="NG-ote4vqKt_tPO70_aO-45" style="edgeStyle=orthogonalEdgeStyle;rounded=0;orthogonalLoop=1;jettySize=auto;html=1;exitX=0.5;exitY=1;exitDx=0;exitDy=0;entryX=0.5;entryY=0;entryDx=0;entryDy=0;" edge="1" parent="1" source="NG-ote4vqKt_tPO70_aO-5" target="NG-ote4vqKt_tPO70_aO-42">
          <mxGeometry relative="1" as="geometry" />
        </mxCell>
        <mxCell id="NG-ote4vqKt_tPO70_aO-48" style="edgeStyle=orthogonalEdgeStyle;rounded=0;orthogonalLoop=1;jettySize=auto;html=1;exitX=1;exitY=0.5;exitDx=0;exitDy=0;entryX=0;entryY=0.5;entryDx=0;entryDy=0;" edge="1" parent="1" source="NG-ote4vqKt_tPO70_aO-5" target="NG-ote4vqKt_tPO70_aO-47">
          <mxGeometry relative="1" as="geometry" />
        </mxCell>
        <mxCell id="NG-ote4vqKt_tPO70_aO-54" style="edgeStyle=orthogonalEdgeStyle;rounded=0;orthogonalLoop=1;jettySize=auto;html=1;exitX=0;exitY=0.5;exitDx=0;exitDy=0;entryX=1;entryY=0.5;entryDx=0;entryDy=0;" edge="1" parent="1" source="NG-ote4vqKt_tPO70_aO-5" target="NG-ote4vqKt_tPO70_aO-50">
          <mxGeometry relative="1" as="geometry" />
        </mxCell>
        <mxCell id="NG-ote4vqKt_tPO70_aO-5" value="Usuario" style="rounded=0;whiteSpace=wrap;html=1;" vertex="1" parent="1">
          <mxGeometry x="390" y="310" width="100" height="50" as="geometry" />
        </mxCell>
        <mxCell id="NG-ote4vqKt_tPO70_aO-115" style="edgeStyle=orthogonalEdgeStyle;rounded=0;orthogonalLoop=1;jettySize=auto;html=1;exitX=1;exitY=0.5;exitDx=0;exitDy=0;entryX=0.5;entryY=0;entryDx=0;entryDy=0;" edge="1" parent="1" source="NG-ote4vqKt_tPO70_aO-9" target="NG-ote4vqKt_tPO70_aO-114">
          <mxGeometry relative="1" as="geometry" />
        </mxCell>
        <mxCell id="NG-ote4vqKt_tPO70_aO-9" value="Acceso_Restricciones" style="rounded=0;whiteSpace=wrap;html=1;" vertex="1" parent="1">
          <mxGeometry x="-127.5" y="10" width="120" height="50" as="geometry" />
        </mxCell>
        <mxCell id="NG-ote4vqKt_tPO70_aO-12" value="Cuota_Deportiva" style="rounded=0;whiteSpace=wrap;html=1;" vertex="1" parent="1">
          <mxGeometry x="930" y="310" width="100" height="50" as="geometry" />
        </mxCell>
        <mxCell id="NG-ote4vqKt_tPO70_aO-118" style="edgeStyle=orthogonalEdgeStyle;rounded=0;orthogonalLoop=1;jettySize=auto;html=1;exitX=0.5;exitY=0;exitDx=0;exitDy=0;entryX=0.5;entryY=1;entryDx=0;entryDy=0;" edge="1" parent="1" source="NG-ote4vqKt_tPO70_aO-13" target="NG-ote4vqKt_tPO70_aO-111">
          <mxGeometry relative="1" as="geometry" />
        </mxCell>
        <mxCell id="NG-ote4vqKt_tPO70_aO-13" value="Rendicion_Cuentas" style="rounded=0;whiteSpace=wrap;html=1;" vertex="1" parent="1">
          <mxGeometry x="-460" y="680" width="120" height="60" as="geometry" />
        </mxCell>
        <mxCell id="NG-ote4vqKt_tPO70_aO-106" style="edgeStyle=orthogonalEdgeStyle;rounded=0;orthogonalLoop=1;jettySize=auto;html=1;exitX=0.75;exitY=1;exitDx=0;exitDy=0;entryX=0.5;entryY=0;entryDx=0;entryDy=0;" edge="1" parent="1" source="NG-ote4vqKt_tPO70_aO-14" target="NG-ote4vqKt_tPO70_aO-105">
          <mxGeometry relative="1" as="geometry" />
        </mxCell>
        <mxCell id="NG-ote4vqKt_tPO70_aO-183" style="edgeStyle=orthogonalEdgeStyle;rounded=0;orthogonalLoop=1;jettySize=auto;html=1;exitX=0.25;exitY=0;exitDx=0;exitDy=0;fontSize=14;entryX=0;entryY=0.5;entryDx=0;entryDy=0;" edge="1" parent="1" source="NG-ote4vqKt_tPO70_aO-14" target="NG-ote4vqKt_tPO70_aO-184">
          <mxGeometry relative="1" as="geometry">
            <mxPoint x="-400" y="-110" as="targetPoint" />
          </mxGeometry>
        </mxCell>
        <mxCell id="NG-ote4vqKt_tPO70_aO-14" value="Comprobante" style="rounded=0;whiteSpace=wrap;html=1;" vertex="1" parent="1">
          <mxGeometry x="-425" y="310" width="100" height="50" as="geometry" />
        </mxCell>
        <mxCell id="NG-ote4vqKt_tPO70_aO-102" style="edgeStyle=orthogonalEdgeStyle;rounded=0;orthogonalLoop=1;jettySize=auto;html=1;exitX=0.5;exitY=0;exitDx=0;exitDy=0;entryX=0.5;entryY=1;entryDx=0;entryDy=0;" edge="1" parent="1" source="NG-ote4vqKt_tPO70_aO-15" target="NG-ote4vqKt_tPO70_aO-101">
          <mxGeometry relative="1" as="geometry" />
        </mxCell>
        <mxCell id="NG-ote4vqKt_tPO70_aO-15" value="Deporte" style="rounded=0;whiteSpace=wrap;html=1;" vertex="1" parent="1">
          <mxGeometry x="927.5" y="682.5" width="105" height="55" as="geometry" />
        </mxCell>
        <mxCell id="NG-ote4vqKt_tPO70_aO-16" value="Cuota_Social" style="rounded=0;whiteSpace=wrap;html=1;" vertex="1" parent="1">
          <mxGeometry x="390" y="690" width="100" height="50" as="geometry" />
        </mxCell>
        <mxCell id="NG-ote4vqKt_tPO70_aO-17" value="Manejo administrativo de un Club de Deportes" style="text;html=1;align=center;verticalAlign=middle;resizable=0;points=[];autosize=1;strokeColor=none;fillColor=none;fontSize=25;" vertex="1" parent="1">
          <mxGeometry x="190" y="-510" width="540" height="40" as="geometry" />
        </mxCell>
        <mxCell id="NG-ote4vqKt_tPO70_aO-19" value="ID_Usuario" style="ellipse;whiteSpace=wrap;html=1;fillColor=#1ba1e2;fontColor=#ffffff;strokeColor=#006EAF;" vertex="1" parent="1">
          <mxGeometry x="165" y="201.25" width="120" height="30" as="geometry" />
        </mxCell>
        <mxCell id="NG-ote4vqKt_tPO70_aO-20" value="Nombre" style="ellipse;whiteSpace=wrap;html=1;" vertex="1" parent="1">
          <mxGeometry x="200" y="160" width="120" height="30" as="geometry" />
        </mxCell>
        <mxCell id="NG-ote4vqKt_tPO70_aO-22" value="Email" style="ellipse;whiteSpace=wrap;html=1;" vertex="1" parent="1">
          <mxGeometry x="560" y="160" width="120" height="30" as="geometry" />
        </mxCell>
        <mxCell id="NG-ote4vqKt_tPO70_aO-24" value="Apellido" style="ellipse;whiteSpace=wrap;html=1;" vertex="1" parent="1">
          <mxGeometry x="235" y="115" width="120" height="30" as="geometry" />
        </mxCell>
        <mxCell id="NG-ote4vqKt_tPO70_aO-25" value="ID_Usuario" style="ellipse;whiteSpace=wrap;html=1;" vertex="1" parent="1">
          <mxGeometry x="-720" y="353.75" width="120" height="30" as="geometry" />
        </mxCell>
        <mxCell id="NG-ote4vqKt_tPO70_aO-27" value="fecha_Visita" style="ellipse;whiteSpace=wrap;html=1;" vertex="1" parent="1">
          <mxGeometry x="480" y="25" width="120" height="30" as="geometry" />
        </mxCell>
        <mxCell id="NG-ote4vqKt_tPO70_aO-28" value="Telefono" style="ellipse;whiteSpace=wrap;html=1;" vertex="1" parent="1">
          <mxGeometry x="610" y="201.25" width="120" height="30" as="geometry" />
        </mxCell>
        <mxCell id="NG-ote4vqKt_tPO70_aO-29" value="Nombre" style="ellipse;whiteSpace=wrap;html=1;" vertex="1" parent="1">
          <mxGeometry x="925" y="870" width="120" height="30" as="geometry" />
        </mxCell>
        <mxCell id="NG-ote4vqKt_tPO70_aO-30" value="Estado _Cuenta" style="ellipse;whiteSpace=wrap;html=1;" vertex="1" parent="1">
          <mxGeometry x="400" y="-25" width="120" height="30" as="geometry" />
        </mxCell>
        <mxCell id="NG-ote4vqKt_tPO70_aO-31" value="Fecha_Alta" style="ellipse;whiteSpace=wrap;html=1;" vertex="1" parent="1">
          <mxGeometry x="530" y="115" width="120" height="30" as="geometry" />
        </mxCell>
        <mxCell id="NG-ote4vqKt_tPO70_aO-32" value="DNI" style="ellipse;whiteSpace=wrap;html=1;" vertex="1" parent="1">
          <mxGeometry x="265" y="70" width="120" height="30" as="geometry" />
        </mxCell>
        <mxCell id="NG-ote4vqKt_tPO70_aO-33" value="Tipo_Usuario" style="ellipse;whiteSpace=wrap;html=1;" vertex="1" parent="1">
          <mxGeometry x="505" y="70" width="120" height="30" as="geometry" />
        </mxCell>
        <mxCell id="NG-ote4vqKt_tPO70_aO-37" value="Direccion" style="ellipse;shape=doubleEllipse;whiteSpace=wrap;html=1;" vertex="1" parent="1">
          <mxGeometry x="325" y="20" width="100" height="40" as="geometry" />
        </mxCell>
        <mxCell id="NG-ote4vqKt_tPO70_aO-40" value="Socio_Activo//Socio_Pasivo//NoSocio//Invitado" style="text;html=1;align=center;verticalAlign=middle;resizable=0;points=[];autosize=1;strokeColor=none;fillColor=none;" vertex="1" parent="1">
          <mxGeometry x="625" y="70" width="270" height="30" as="geometry" />
        </mxCell>
        <mxCell id="NG-ote4vqKt_tPO70_aO-41" value="Solo para invitados" style="text;html=1;align=center;verticalAlign=middle;resizable=0;points=[];autosize=1;strokeColor=none;fillColor=none;" vertex="1" parent="1">
          <mxGeometry x="600" y="20" width="130" height="30" as="geometry" />
        </mxCell>
        <mxCell id="NG-ote4vqKt_tPO70_aO-46" style="edgeStyle=orthogonalEdgeStyle;rounded=0;orthogonalLoop=1;jettySize=auto;html=1;exitX=0.5;exitY=1;exitDx=0;exitDy=0;entryX=0.5;entryY=0;entryDx=0;entryDy=0;" edge="1" parent="1" source="NG-ote4vqKt_tPO70_aO-42" target="NG-ote4vqKt_tPO70_aO-16">
          <mxGeometry relative="1" as="geometry" />
        </mxCell>
        <mxCell id="NG-ote4vqKt_tPO70_aO-42" value="Paga" style="rhombus;whiteSpace=wrap;html=1;" vertex="1" parent="1">
          <mxGeometry x="407.5" y="480" width="65" height="70" as="geometry" />
        </mxCell>
        <mxCell id="NG-ote4vqKt_tPO70_aO-43" value="solo aplica con tipo de socio" style="text;html=1;align=center;verticalAlign=middle;resizable=0;points=[];autosize=1;strokeColor=none;fillColor=none;" vertex="1" parent="1">
          <mxGeometry x="220" y="500" width="170" height="30" as="geometry" />
        </mxCell>
        <mxCell id="NG-ote4vqKt_tPO70_aO-44" value="Al dia// Pendiente// En Mora" style="text;html=1;align=center;verticalAlign=middle;resizable=0;points=[];autosize=1;strokeColor=none;fillColor=none;" vertex="1" parent="1">
          <mxGeometry x="375" y="-65" width="170" height="30" as="geometry" />
        </mxCell>
        <mxCell id="NG-ote4vqKt_tPO70_aO-49" style="edgeStyle=orthogonalEdgeStyle;rounded=0;orthogonalLoop=1;jettySize=auto;html=1;exitX=1;exitY=0.5;exitDx=0;exitDy=0;entryX=0;entryY=0.5;entryDx=0;entryDy=0;" edge="1" parent="1" source="NG-ote4vqKt_tPO70_aO-47" target="NG-ote4vqKt_tPO70_aO-12">
          <mxGeometry relative="1" as="geometry">
            <mxPoint x="769.9999999999995" y="335" as="sourcePoint" />
          </mxGeometry>
        </mxCell>
        <mxCell id="NG-ote4vqKt_tPO70_aO-47" value="Pagan" style="rhombus;whiteSpace=wrap;html=1;" vertex="1" parent="1">
          <mxGeometry x="680" y="300" width="65" height="70" as="geometry" />
        </mxCell>
        <mxCell id="NG-ote4vqKt_tPO70_aO-53" style="edgeStyle=orthogonalEdgeStyle;rounded=0;orthogonalLoop=1;jettySize=auto;html=1;exitX=0;exitY=0.5;exitDx=0;exitDy=0;" edge="1" parent="1" source="NG-ote4vqKt_tPO70_aO-50" target="NG-ote4vqKt_tPO70_aO-14">
          <mxGeometry relative="1" as="geometry" />
        </mxCell>
        <mxCell id="NG-ote4vqKt_tPO70_aO-50" value="Emite" style="rhombus;whiteSpace=wrap;html=1;" vertex="1" parent="1">
          <mxGeometry x="20" y="300" width="65" height="70" as="geometry" />
        </mxCell>
        <mxCell id="NG-ote4vqKt_tPO70_aO-56" value="Estado_Pago" style="ellipse;whiteSpace=wrap;html=1;" vertex="1" parent="1">
          <mxGeometry x="300" y="820" width="120" height="30" as="geometry" />
        </mxCell>
        <mxCell id="NG-ote4vqKt_tPO70_aO-57" value="Mes" style="ellipse;whiteSpace=wrap;html=1;" vertex="1" parent="1">
          <mxGeometry x="-595" y="825" width="120" height="30" as="geometry" />
        </mxCell>
        <mxCell id="NG-ote4vqKt_tPO70_aO-58" value="ID_Rendicion" style="ellipse;whiteSpace=wrap;html=1;fillColor=#1ba1e2;fontColor=#ffffff;strokeColor=#006EAF;" vertex="1" parent="1">
          <mxGeometry x="-607.5" y="775" width="120" height="30" as="geometry" />
        </mxCell>
        <mxCell id="NG-ote4vqKt_tPO70_aO-59" value="ID_Cuota_Deportiva" style="ellipse;whiteSpace=wrap;html=1;" vertex="1" parent="1">
          <mxGeometry x="-720" y="273.75" width="120" height="30" as="geometry" />
        </mxCell>
        <mxCell id="NG-ote4vqKt_tPO70_aO-60" value="ID_Cuota_Social" style="ellipse;whiteSpace=wrap;html=1;" vertex="1" parent="1">
          <mxGeometry x="-720" y="313.75" width="120" height="30" as="geometry" />
        </mxCell>
        <mxCell id="NG-ote4vqKt_tPO70_aO-61" value="Monto_Total" style="ellipse;whiteSpace=wrap;html=1;" vertex="1" parent="1">
          <mxGeometry x="-720" y="388.75" width="120" height="30" as="geometry" />
        </mxCell>
        <mxCell id="NG-ote4vqKt_tPO70_aO-62" value="Tipo_Comprobante" style="ellipse;whiteSpace=wrap;html=1;" vertex="1" parent="1">
          <mxGeometry x="-720" y="433.75" width="120" height="30" as="geometry" />
        </mxCell>
        <mxCell id="NG-ote4vqKt_tPO70_aO-63" value="Fecha_Emision" style="ellipse;whiteSpace=wrap;html=1;" vertex="1" parent="1">
          <mxGeometry x="-720" y="468.75" width="120" height="30" as="geometry" />
        </mxCell>
        <mxCell id="NG-ote4vqKt_tPO70_aO-64" value="ID_Comprobante" style="ellipse;whiteSpace=wrap;html=1;fillColor=#1ba1e2;fontColor=#ffffff;strokeColor=#006EAF;" vertex="1" parent="1">
          <mxGeometry x="-720" y="508.75" width="120" height="30" as="geometry" />
        </mxCell>
        <mxCell id="NG-ote4vqKt_tPO70_aO-65" value="Descripcion" style="ellipse;whiteSpace=wrap;html=1;" vertex="1" parent="1">
          <mxGeometry x="1055" y="840" width="120" height="30" as="geometry" />
        </mxCell>
        <mxCell id="NG-ote4vqKt_tPO70_aO-66" value="ID_Deporte" style="ellipse;whiteSpace=wrap;html=1;fillColor=#1ba1e2;fontColor=#ffffff;strokeColor=#006EAF;" vertex="1" parent="1">
          <mxGeometry x="780" y="850" width="120" height="30" as="geometry" />
        </mxCell>
        <mxCell id="NG-ote4vqKt_tPO70_aO-67" value="ID_Deporte" style="ellipse;whiteSpace=wrap;html=1;" vertex="1" parent="1">
          <mxGeometry x="1160" y="226.25" width="120" height="30" as="geometry" />
        </mxCell>
        <mxCell id="NG-ote4vqKt_tPO70_aO-68" value="ID_Usuario" style="ellipse;whiteSpace=wrap;html=1;" vertex="1" parent="1">
          <mxGeometry x="1160" y="261.25" width="120" height="30" as="geometry" />
        </mxCell>
        <mxCell id="NG-ote4vqKt_tPO70_aO-69" value="Estado_Pago" style="ellipse;whiteSpace=wrap;html=1;" vertex="1" parent="1">
          <mxGeometry x="1160" y="301.25" width="120" height="30" as="geometry" />
        </mxCell>
        <mxCell id="NG-ote4vqKt_tPO70_aO-70" value="Fecha_Pago" style="ellipse;whiteSpace=wrap;html=1;" vertex="1" parent="1">
          <mxGeometry x="1160" y="341.25" width="120" height="30" as="geometry" />
        </mxCell>
        <mxCell id="NG-ote4vqKt_tPO70_aO-71" value="Monto" style="ellipse;whiteSpace=wrap;html=1;" vertex="1" parent="1">
          <mxGeometry x="1160" y="381.25" width="120" height="30" as="geometry" />
        </mxCell>
        <mxCell id="NG-ote4vqKt_tPO70_aO-72" value="ID_Cuota_Deportiva" style="ellipse;whiteSpace=wrap;html=1;fillColor=#1ba1e2;fontColor=#ffffff;strokeColor=#006EAF;" vertex="1" parent="1">
          <mxGeometry x="1160" y="421.25" width="120" height="30" as="geometry" />
        </mxCell>
        <mxCell id="NG-ote4vqKt_tPO70_aO-73" value="ID_Usuario" style="ellipse;whiteSpace=wrap;html=1;" vertex="1" parent="1">
          <mxGeometry x="255" y="775" width="120" height="30" as="geometry" />
        </mxCell>
        <mxCell id="NG-ote4vqKt_tPO70_aO-74" value="Fecha_Pago" style="ellipse;whiteSpace=wrap;html=1;" vertex="1" parent="1">
          <mxGeometry x="375" y="860" width="120" height="30" as="geometry" />
        </mxCell>
        <mxCell id="NG-ote4vqKt_tPO70_aO-75" value="Monto" style="ellipse;whiteSpace=wrap;html=1;" vertex="1" parent="1">
          <mxGeometry x="460" y="820" width="120" height="30" as="geometry" />
        </mxCell>
        <mxCell id="NG-ote4vqKt_tPO70_aO-76" value="ID_cuota_social" style="ellipse;whiteSpace=wrap;html=1;fillColor=#1ba1e2;fontColor=#ffffff;strokeColor=#006EAF;" vertex="1" parent="1">
          <mxGeometry x="505" y="775" width="120" height="30" as="geometry" />
        </mxCell>
        <mxCell id="NG-ote4vqKt_tPO70_aO-77" value="FK" style="text;html=1;align=center;verticalAlign=middle;resizable=0;points=[];autosize=1;strokeColor=none;fillColor=none;" vertex="1" parent="1">
          <mxGeometry x="215" y="775" width="40" height="30" as="geometry" />
        </mxCell>
        <mxCell id="NG-ote4vqKt_tPO70_aO-78" value="PK" style="text;html=1;align=center;verticalAlign=middle;resizable=0;points=[];autosize=1;strokeColor=none;fillColor=none;" vertex="1" parent="1">
          <mxGeometry x="625" y="775" width="40" height="30" as="geometry" />
        </mxCell>
        <mxCell id="NG-ote4vqKt_tPO70_aO-79" value="PK" style="text;html=1;align=center;verticalAlign=middle;resizable=0;points=[];autosize=1;strokeColor=none;fillColor=none;" vertex="1" parent="1">
          <mxGeometry x="120" y="205" width="40" height="30" as="geometry" />
        </mxCell>
        <mxCell id="NG-ote4vqKt_tPO70_aO-80" value="PK" style="text;html=1;align=center;verticalAlign=middle;resizable=0;points=[];autosize=1;strokeColor=none;fillColor=none;" vertex="1" parent="1">
          <mxGeometry x="1300" y="421.25" width="40" height="30" as="geometry" />
        </mxCell>
        <mxCell id="NG-ote4vqKt_tPO70_aO-82" value="FK" style="text;html=1;align=center;verticalAlign=middle;resizable=0;points=[];autosize=1;strokeColor=none;fillColor=none;" vertex="1" parent="1">
          <mxGeometry x="1300" y="261.25" width="40" height="30" as="geometry" />
        </mxCell>
        <mxCell id="NG-ote4vqKt_tPO70_aO-83" value="FK" style="text;html=1;align=center;verticalAlign=middle;resizable=0;points=[];autosize=1;strokeColor=none;fillColor=none;" vertex="1" parent="1">
          <mxGeometry x="1300" y="226.25" width="40" height="30" as="geometry" />
        </mxCell>
        <mxCell id="NG-ote4vqKt_tPO70_aO-84" value="Puede ser de Cuota_Social o Cuota_Deportiva" style="text;whiteSpace=wrap;html=1;" vertex="1" parent="1">
          <mxGeometry x="-990" y="433.75" width="280" height="40" as="geometry" />
        </mxCell>
        <mxCell id="NG-ote4vqKt_tPO70_aO-85" value="PK" style="text;html=1;align=center;verticalAlign=middle;resizable=0;points=[];autosize=1;strokeColor=none;fillColor=none;" vertex="1" parent="1">
          <mxGeometry x="-795" y="506.25" width="40" height="30" as="geometry" />
        </mxCell>
        <mxCell id="NG-ote4vqKt_tPO70_aO-86" value="FK" style="text;html=1;align=center;verticalAlign=middle;resizable=0;points=[];autosize=1;strokeColor=none;fillColor=none;" vertex="1" parent="1">
          <mxGeometry x="-800" y="311.25" width="40" height="30" as="geometry" />
        </mxCell>
        <mxCell id="NG-ote4vqKt_tPO70_aO-87" value="FK" style="text;html=1;align=center;verticalAlign=middle;resizable=0;points=[];autosize=1;strokeColor=none;fillColor=none;" vertex="1" parent="1">
          <mxGeometry x="-800" y="271.25" width="40" height="30" as="geometry" />
        </mxCell>
        <mxCell id="NG-ote4vqKt_tPO70_aO-88" value="Nombre" style="ellipse;whiteSpace=wrap;html=1;" vertex="1" parent="1">
          <mxGeometry x="-327.5" y="55" width="120" height="30" as="geometry" />
        </mxCell>
        <mxCell id="NG-ote4vqKt_tPO70_aO-90" value="ID_Usuario" style="ellipse;whiteSpace=wrap;html=1;" vertex="1" parent="1">
          <mxGeometry x="-327.5" y="5" width="120" height="30" as="geometry" />
        </mxCell>
        <mxCell id="NG-ote4vqKt_tPO70_aO-91" value="Nivel" style="ellipse;whiteSpace=wrap;html=1;" vertex="1" parent="1">
          <mxGeometry x="-327.5" y="-90" width="120" height="30" as="geometry" />
        </mxCell>
        <mxCell id="NG-ote4vqKt_tPO70_aO-92" value="Descripcion" style="ellipse;whiteSpace=wrap;html=1;" vertex="1" parent="1">
          <mxGeometry x="-327.5" y="-45" width="120" height="30" as="geometry" />
        </mxCell>
        <mxCell id="NG-ote4vqKt_tPO70_aO-93" value="ID_Acceso" style="ellipse;whiteSpace=wrap;html=1;fillColor=#1ba1e2;fontColor=#ffffff;strokeColor=#006EAF;" vertex="1" parent="1">
          <mxGeometry x="-327.5" y="100" width="120" height="30" as="geometry" />
        </mxCell>
        <mxCell id="NG-ote4vqKt_tPO70_aO-94" value="ID_Usuario" style="ellipse;whiteSpace=wrap;html=1;" vertex="1" parent="1">
          <mxGeometry x="-725" y="236.25" width="120" height="30" as="geometry" />
        </mxCell>
        <mxCell id="NG-ote4vqKt_tPO70_aO-95" value="Detalle" style="ellipse;whiteSpace=wrap;html=1;" vertex="1" parent="1">
          <mxGeometry x="-280" y="775" width="120" height="30" as="geometry" />
        </mxCell>
        <mxCell id="NG-ote4vqKt_tPO70_aO-96" value="Saldo" style="ellipse;whiteSpace=wrap;html=1;" vertex="1" parent="1">
          <mxGeometry x="-310" y="825" width="120" height="30" as="geometry" />
        </mxCell>
        <mxCell id="NG-ote4vqKt_tPO70_aO-97" value="Total_Egresos" style="ellipse;whiteSpace=wrap;html=1;" vertex="1" parent="1">
          <mxGeometry x="-375" y="870" width="120" height="30" as="geometry" />
        </mxCell>
        <mxCell id="NG-ote4vqKt_tPO70_aO-98" value="Total_Ingresos" style="ellipse;whiteSpace=wrap;html=1;" vertex="1" parent="1">
          <mxGeometry x="-462.5" y="900" width="120" height="30" as="geometry" />
        </mxCell>
        <mxCell id="NG-ote4vqKt_tPO70_aO-99" value="Año" style="ellipse;whiteSpace=wrap;html=1;" vertex="1" parent="1">
          <mxGeometry x="-562.5" y="870" width="120" height="30" as="geometry" />
        </mxCell>
        <mxCell id="NG-ote4vqKt_tPO70_aO-100" value="FK" style="text;html=1;align=center;verticalAlign=middle;resizable=0;points=[];autosize=1;strokeColor=none;fillColor=none;" vertex="1" parent="1">
          <mxGeometry x="-800" y="231.25" width="40" height="30" as="geometry" />
        </mxCell>
        <mxCell id="NG-ote4vqKt_tPO70_aO-103" style="edgeStyle=orthogonalEdgeStyle;rounded=0;orthogonalLoop=1;jettySize=auto;html=1;exitX=0.5;exitY=0;exitDx=0;exitDy=0;entryX=0.5;entryY=1;entryDx=0;entryDy=0;" edge="1" parent="1" source="NG-ote4vqKt_tPO70_aO-101" target="NG-ote4vqKt_tPO70_aO-12">
          <mxGeometry relative="1" as="geometry" />
        </mxCell>
        <mxCell id="NG-ote4vqKt_tPO70_aO-101" value="Corresponde" style="rhombus;whiteSpace=wrap;html=1;" vertex="1" parent="1">
          <mxGeometry x="940" y="483.75" width="80" height="80" as="geometry" />
        </mxCell>
        <mxCell id="NG-ote4vqKt_tPO70_aO-107" style="edgeStyle=orthogonalEdgeStyle;rounded=0;orthogonalLoop=1;jettySize=auto;html=1;exitX=0.5;exitY=1;exitDx=0;exitDy=0;entryX=0;entryY=0.5;entryDx=0;entryDy=0;" edge="1" parent="1" source="NG-ote4vqKt_tPO70_aO-105" target="NG-ote4vqKt_tPO70_aO-16">
          <mxGeometry relative="1" as="geometry" />
        </mxCell>
        <mxCell id="NG-ote4vqKt_tPO70_aO-105" value="Genera" style="rhombus;whiteSpace=wrap;html=1;" vertex="1" parent="1">
          <mxGeometry x="-80" y="498.75" width="65" height="70" as="geometry" />
        </mxCell>
        <mxCell id="NG-ote4vqKt_tPO70_aO-126" style="edgeStyle=orthogonalEdgeStyle;rounded=0;orthogonalLoop=1;jettySize=auto;html=1;exitX=0.5;exitY=0;exitDx=0;exitDy=0;entryX=0.25;entryY=1;entryDx=0;entryDy=0;" edge="1" parent="1" source="NG-ote4vqKt_tPO70_aO-111" target="NG-ote4vqKt_tPO70_aO-14">
          <mxGeometry relative="1" as="geometry" />
        </mxCell>
        <mxCell id="NG-ote4vqKt_tPO70_aO-111" value="Contiene" style="rhombus;whiteSpace=wrap;html=1;" vertex="1" parent="1">
          <mxGeometry x="-432.5" y="506.25" width="65" height="70" as="geometry" />
        </mxCell>
        <mxCell id="NG-ote4vqKt_tPO70_aO-116" style="edgeStyle=orthogonalEdgeStyle;rounded=0;orthogonalLoop=1;jettySize=auto;html=1;exitX=0.5;exitY=1;exitDx=0;exitDy=0;entryX=0;entryY=0.2;entryDx=0;entryDy=0;entryPerimeter=0;" edge="1" parent="1" source="NG-ote4vqKt_tPO70_aO-114" target="NG-ote4vqKt_tPO70_aO-5">
          <mxGeometry relative="1" as="geometry">
            <Array as="points">
              <mxPoint x="110" y="280" />
              <mxPoint x="280" y="280" />
              <mxPoint x="280" y="320" />
            </Array>
          </mxGeometry>
        </mxCell>
        <mxCell id="NG-ote4vqKt_tPO70_aO-114" value="Define" style="rhombus;whiteSpace=wrap;html=1;" vertex="1" parent="1">
          <mxGeometry x="77.5" y="110" width="65" height="70" as="geometry" />
        </mxCell>
        <mxCell id="NG-ote4vqKt_tPO70_aO-120" value="PK" style="text;html=1;align=center;verticalAlign=middle;resizable=0;points=[];autosize=1;strokeColor=none;fillColor=none;" vertex="1" parent="1">
          <mxGeometry x="-660" y="775" width="40" height="30" as="geometry" />
        </mxCell>
        <mxCell id="NG-ote4vqKt_tPO70_aO-123" value="" style="endArrow=none;html=1;rounded=0;exitX=0.5;exitY=0;exitDx=0;exitDy=0;entryX=0.25;entryY=1;entryDx=0;entryDy=0;" edge="1" parent="1" source="NG-ote4vqKt_tPO70_aO-66" target="NG-ote4vqKt_tPO70_aO-15">
          <mxGeometry width="50" height="50" relative="1" as="geometry">
            <mxPoint x="730" y="820" as="sourcePoint" />
            <mxPoint x="780" y="770" as="targetPoint" />
          </mxGeometry>
        </mxCell>
        <mxCell id="NG-ote4vqKt_tPO70_aO-124" value="" style="endArrow=none;html=1;rounded=0;exitX=0.5;exitY=0;exitDx=0;exitDy=0;" edge="1" parent="1" source="NG-ote4vqKt_tPO70_aO-29" target="NG-ote4vqKt_tPO70_aO-15">
          <mxGeometry width="50" height="50" relative="1" as="geometry">
            <mxPoint x="900" y="850" as="sourcePoint" />
            <mxPoint x="950" y="800" as="targetPoint" />
          </mxGeometry>
        </mxCell>
        <mxCell id="NG-ote4vqKt_tPO70_aO-125" value="" style="endArrow=none;html=1;rounded=0;entryX=0.75;entryY=1;entryDx=0;entryDy=0;exitX=0.5;exitY=0;exitDx=0;exitDy=0;" edge="1" parent="1" source="NG-ote4vqKt_tPO70_aO-65" target="NG-ote4vqKt_tPO70_aO-15">
          <mxGeometry width="50" height="50" relative="1" as="geometry">
            <mxPoint x="960" y="830" as="sourcePoint" />
            <mxPoint x="1010" y="780" as="targetPoint" />
          </mxGeometry>
        </mxCell>
        <mxCell id="NG-ote4vqKt_tPO70_aO-127" value="" style="endArrow=none;html=1;rounded=0;exitX=1;exitY=0;exitDx=0;exitDy=0;entryX=0;entryY=1;entryDx=0;entryDy=0;" edge="1" parent="1" source="NG-ote4vqKt_tPO70_aO-58" target="NG-ote4vqKt_tPO70_aO-13">
          <mxGeometry width="50" height="50" relative="1" as="geometry">
            <mxPoint x="-635" y="695" as="sourcePoint" />
            <mxPoint x="-595" y="635" as="targetPoint" />
          </mxGeometry>
        </mxCell>
        <mxCell id="NG-ote4vqKt_tPO70_aO-128" value="" style="endArrow=none;html=1;rounded=0;exitX=1;exitY=0;exitDx=0;exitDy=0;" edge="1" parent="1" source="NG-ote4vqKt_tPO70_aO-57" target="NG-ote4vqKt_tPO70_aO-13">
          <mxGeometry width="50" height="50" relative="1" as="geometry">
            <mxPoint x="-545" y="715" as="sourcePoint" />
            <mxPoint x="-505" y="665" as="targetPoint" />
          </mxGeometry>
        </mxCell>
        <mxCell id="NG-ote4vqKt_tPO70_aO-129" value="" style="endArrow=none;html=1;rounded=0;exitX=1;exitY=0;exitDx=0;exitDy=0;" edge="1" parent="1" source="NG-ote4vqKt_tPO70_aO-99" target="NG-ote4vqKt_tPO70_aO-13">
          <mxGeometry width="50" height="50" relative="1" as="geometry">
            <mxPoint x="-435" y="825" as="sourcePoint" />
            <mxPoint x="-385" y="775" as="targetPoint" />
          </mxGeometry>
        </mxCell>
        <mxCell id="NG-ote4vqKt_tPO70_aO-130" value="" style="endArrow=none;html=1;rounded=0;exitX=0.5;exitY=0;exitDx=0;exitDy=0;entryX=0.5;entryY=1;entryDx=0;entryDy=0;" edge="1" parent="1" source="NG-ote4vqKt_tPO70_aO-98" target="NG-ote4vqKt_tPO70_aO-13">
          <mxGeometry width="50" height="50" relative="1" as="geometry">
            <mxPoint x="-405" y="875" as="sourcePoint" />
            <mxPoint x="-355" y="825" as="targetPoint" />
          </mxGeometry>
        </mxCell>
        <mxCell id="NG-ote4vqKt_tPO70_aO-131" value="" style="endArrow=none;html=1;rounded=0;exitX=0;exitY=0;exitDx=0;exitDy=0;entryX=0.646;entryY=1.083;entryDx=0;entryDy=0;entryPerimeter=0;" edge="1" parent="1" source="NG-ote4vqKt_tPO70_aO-97" target="NG-ote4vqKt_tPO70_aO-13">
          <mxGeometry width="50" height="50" relative="1" as="geometry">
            <mxPoint x="-345" y="835" as="sourcePoint" />
            <mxPoint x="-295" y="785" as="targetPoint" />
          </mxGeometry>
        </mxCell>
        <mxCell id="NG-ote4vqKt_tPO70_aO-132" value="" style="endArrow=none;html=1;rounded=0;exitX=0.205;exitY=0.145;exitDx=0;exitDy=0;exitPerimeter=0;entryX=0.75;entryY=1;entryDx=0;entryDy=0;" edge="1" parent="1" source="NG-ote4vqKt_tPO70_aO-96" target="NG-ote4vqKt_tPO70_aO-13">
          <mxGeometry width="50" height="50" relative="1" as="geometry">
            <mxPoint x="-325" y="805" as="sourcePoint" />
            <mxPoint x="-275" y="755" as="targetPoint" />
          </mxGeometry>
        </mxCell>
        <mxCell id="NG-ote4vqKt_tPO70_aO-133" value="" style="endArrow=none;html=1;rounded=0;exitX=0;exitY=0;exitDx=0;exitDy=0;entryX=1;entryY=1;entryDx=0;entryDy=0;" edge="1" parent="1" source="NG-ote4vqKt_tPO70_aO-95" target="NG-ote4vqKt_tPO70_aO-13">
          <mxGeometry width="50" height="50" relative="1" as="geometry">
            <mxPoint x="-256.5882066776494" y="774.8257984590041" as="sourcePoint" />
            <mxPoint x="-245" y="705" as="targetPoint" />
          </mxGeometry>
        </mxCell>
        <mxCell id="NG-ote4vqKt_tPO70_aO-134" value="" style="endArrow=none;html=1;rounded=0;exitX=1;exitY=0;exitDx=0;exitDy=0;entryX=0;entryY=1;entryDx=0;entryDy=0;" edge="1" parent="1" source="NG-ote4vqKt_tPO70_aO-73" target="NG-ote4vqKt_tPO70_aO-16">
          <mxGeometry width="50" height="50" relative="1" as="geometry">
            <mxPoint x="410" y="800" as="sourcePoint" />
            <mxPoint x="460" y="750" as="targetPoint" />
          </mxGeometry>
        </mxCell>
        <mxCell id="NG-ote4vqKt_tPO70_aO-135" value="" style="endArrow=none;html=1;rounded=0;entryX=0.25;entryY=1;entryDx=0;entryDy=0;" edge="1" parent="1" source="NG-ote4vqKt_tPO70_aO-56" target="NG-ote4vqKt_tPO70_aO-16">
          <mxGeometry width="50" height="50" relative="1" as="geometry">
            <mxPoint x="420" y="800" as="sourcePoint" />
            <mxPoint x="470" y="750" as="targetPoint" />
          </mxGeometry>
        </mxCell>
        <mxCell id="NG-ote4vqKt_tPO70_aO-136" value="" style="endArrow=none;html=1;rounded=0;" edge="1" parent="1" source="NG-ote4vqKt_tPO70_aO-74" target="NG-ote4vqKt_tPO70_aO-16">
          <mxGeometry width="50" height="50" relative="1" as="geometry">
            <mxPoint x="440" y="820" as="sourcePoint" />
            <mxPoint x="490" y="770" as="targetPoint" />
          </mxGeometry>
        </mxCell>
        <mxCell id="NG-ote4vqKt_tPO70_aO-137" value="" style="endArrow=none;html=1;rounded=0;exitX=0;exitY=0;exitDx=0;exitDy=0;entryX=0.75;entryY=1;entryDx=0;entryDy=0;" edge="1" parent="1" source="NG-ote4vqKt_tPO70_aO-75" target="NG-ote4vqKt_tPO70_aO-16">
          <mxGeometry width="50" height="50" relative="1" as="geometry">
            <mxPoint x="460" y="800" as="sourcePoint" />
            <mxPoint x="510" y="750" as="targetPoint" />
          </mxGeometry>
        </mxCell>
        <mxCell id="NG-ote4vqKt_tPO70_aO-138" value="" style="endArrow=none;html=1;rounded=0;exitX=0;exitY=0;exitDx=0;exitDy=0;entryX=1;entryY=1;entryDx=0;entryDy=0;" edge="1" parent="1" source="NG-ote4vqKt_tPO70_aO-76" target="NG-ote4vqKt_tPO70_aO-16">
          <mxGeometry width="50" height="50" relative="1" as="geometry">
            <mxPoint x="510" y="770" as="sourcePoint" />
            <mxPoint x="560" y="720" as="targetPoint" />
          </mxGeometry>
        </mxCell>
        <mxCell id="NG-ote4vqKt_tPO70_aO-144" value="" style="endArrow=none;html=1;rounded=0;exitX=1;exitY=0.5;exitDx=0;exitDy=0;entryX=0;entryY=0;entryDx=0;entryDy=0;" edge="1" parent="1" source="NG-ote4vqKt_tPO70_aO-94" target="NG-ote4vqKt_tPO70_aO-14">
          <mxGeometry width="50" height="50" relative="1" as="geometry">
            <mxPoint x="-140" y="210" as="sourcePoint" />
            <mxPoint x="-90" y="160" as="targetPoint" />
          </mxGeometry>
        </mxCell>
        <mxCell id="NG-ote4vqKt_tPO70_aO-145" value="" style="endArrow=none;html=1;rounded=0;exitX=1;exitY=0.5;exitDx=0;exitDy=0;" edge="1" parent="1" source="NG-ote4vqKt_tPO70_aO-59">
          <mxGeometry width="50" height="50" relative="1" as="geometry">
            <mxPoint x="-160" y="330" as="sourcePoint" />
            <mxPoint x="-420" y="310" as="targetPoint" />
          </mxGeometry>
        </mxCell>
        <mxCell id="NG-ote4vqKt_tPO70_aO-146" value="" style="endArrow=none;html=1;rounded=0;exitX=1;exitY=0.5;exitDx=0;exitDy=0;" edge="1" parent="1" source="NG-ote4vqKt_tPO70_aO-60">
          <mxGeometry width="50" height="50" relative="1" as="geometry">
            <mxPoint x="-170" y="350" as="sourcePoint" />
            <mxPoint x="-420" y="310" as="targetPoint" />
          </mxGeometry>
        </mxCell>
        <mxCell id="NG-ote4vqKt_tPO70_aO-147" value="" style="endArrow=none;html=1;rounded=0;entryX=0;entryY=0;entryDx=0;entryDy=0;exitX=1;exitY=0.5;exitDx=0;exitDy=0;" edge="1" parent="1" source="NG-ote4vqKt_tPO70_aO-25" target="NG-ote4vqKt_tPO70_aO-14">
          <mxGeometry width="50" height="50" relative="1" as="geometry">
            <mxPoint x="-170" y="400" as="sourcePoint" />
            <mxPoint x="-120" y="350" as="targetPoint" />
          </mxGeometry>
        </mxCell>
        <mxCell id="NG-ote4vqKt_tPO70_aO-148" value="" style="endArrow=none;html=1;rounded=0;entryX=0;entryY=0.25;entryDx=0;entryDy=0;exitX=1;exitY=0.5;exitDx=0;exitDy=0;" edge="1" parent="1" source="NG-ote4vqKt_tPO70_aO-61" target="NG-ote4vqKt_tPO70_aO-14">
          <mxGeometry width="50" height="50" relative="1" as="geometry">
            <mxPoint x="-200" y="407.5" as="sourcePoint" />
            <mxPoint x="-129.28932188134524" y="357.5" as="targetPoint" />
            <Array as="points" />
          </mxGeometry>
        </mxCell>
        <mxCell id="NG-ote4vqKt_tPO70_aO-149" value="" style="endArrow=none;html=1;rounded=0;entryX=0;entryY=0.5;entryDx=0;entryDy=0;exitX=1;exitY=0.5;exitDx=0;exitDy=0;" edge="1" parent="1" source="NG-ote4vqKt_tPO70_aO-62" target="NG-ote4vqKt_tPO70_aO-14">
          <mxGeometry width="50" height="50" relative="1" as="geometry">
            <mxPoint x="-160" y="420" as="sourcePoint" />
            <mxPoint x="-110" y="370" as="targetPoint" />
          </mxGeometry>
        </mxCell>
        <mxCell id="NG-ote4vqKt_tPO70_aO-150" value="" style="endArrow=none;html=1;rounded=0;entryX=0;entryY=0.75;entryDx=0;entryDy=0;exitX=1;exitY=0.5;exitDx=0;exitDy=0;" edge="1" parent="1" source="NG-ote4vqKt_tPO70_aO-63" target="NG-ote4vqKt_tPO70_aO-14">
          <mxGeometry width="50" height="50" relative="1" as="geometry">
            <mxPoint x="-160" y="440" as="sourcePoint" />
            <mxPoint x="-110" y="390" as="targetPoint" />
          </mxGeometry>
        </mxCell>
        <mxCell id="NG-ote4vqKt_tPO70_aO-151" value="" style="endArrow=none;html=1;rounded=0;exitX=1;exitY=0.5;exitDx=0;exitDy=0;entryX=0;entryY=1;entryDx=0;entryDy=0;" edge="1" parent="1" source="NG-ote4vqKt_tPO70_aO-64" target="NG-ote4vqKt_tPO70_aO-14">
          <mxGeometry width="50" height="50" relative="1" as="geometry">
            <mxPoint x="-170" y="470" as="sourcePoint" />
            <mxPoint x="-120" y="420" as="targetPoint" />
          </mxGeometry>
        </mxCell>
        <mxCell id="NG-ote4vqKt_tPO70_aO-152" value="" style="endArrow=none;html=1;rounded=0;exitX=1;exitY=0.5;exitDx=0;exitDy=0;entryX=0;entryY=1;entryDx=0;entryDy=0;" edge="1" parent="1" source="NG-ote4vqKt_tPO70_aO-93" target="NG-ote4vqKt_tPO70_aO-9">
          <mxGeometry width="50" height="50" relative="1" as="geometry">
            <mxPoint x="-240" y="110" as="sourcePoint" />
            <mxPoint x="-190" y="60" as="targetPoint" />
          </mxGeometry>
        </mxCell>
        <mxCell id="NG-ote4vqKt_tPO70_aO-153" value="" style="endArrow=none;html=1;rounded=0;exitX=1;exitY=0.5;exitDx=0;exitDy=0;entryX=0;entryY=0.75;entryDx=0;entryDy=0;" edge="1" parent="1" source="NG-ote4vqKt_tPO70_aO-88" target="NG-ote4vqKt_tPO70_aO-9">
          <mxGeometry width="50" height="50" relative="1" as="geometry">
            <mxPoint x="-250" y="30" as="sourcePoint" />
            <mxPoint x="-200" y="-20" as="targetPoint" />
          </mxGeometry>
        </mxCell>
        <mxCell id="NG-ote4vqKt_tPO70_aO-154" value="" style="endArrow=none;html=1;rounded=0;exitX=1;exitY=0.5;exitDx=0;exitDy=0;entryX=0;entryY=0.5;entryDx=0;entryDy=0;" edge="1" parent="1" source="NG-ote4vqKt_tPO70_aO-90" target="NG-ote4vqKt_tPO70_aO-9">
          <mxGeometry width="50" height="50" relative="1" as="geometry">
            <mxPoint x="-210" y="-50" as="sourcePoint" />
            <mxPoint x="-160" y="-100" as="targetPoint" />
          </mxGeometry>
        </mxCell>
        <mxCell id="NG-ote4vqKt_tPO70_aO-155" value="" style="endArrow=none;html=1;rounded=0;exitX=1;exitY=0.5;exitDx=0;exitDy=0;entryX=0;entryY=0.25;entryDx=0;entryDy=0;" edge="1" parent="1" source="NG-ote4vqKt_tPO70_aO-92" target="NG-ote4vqKt_tPO70_aO-9">
          <mxGeometry width="50" height="50" relative="1" as="geometry">
            <mxPoint x="-230" y="-70" as="sourcePoint" />
            <mxPoint x="-180" y="-120" as="targetPoint" />
          </mxGeometry>
        </mxCell>
        <mxCell id="NG-ote4vqKt_tPO70_aO-156" value="" style="endArrow=none;html=1;rounded=0;exitX=1;exitY=0.5;exitDx=0;exitDy=0;entryX=0;entryY=0;entryDx=0;entryDy=0;" edge="1" parent="1" source="NG-ote4vqKt_tPO70_aO-91" target="NG-ote4vqKt_tPO70_aO-9">
          <mxGeometry width="50" height="50" relative="1" as="geometry">
            <mxPoint x="-200" y="-70" as="sourcePoint" />
            <mxPoint x="-150" y="-120" as="targetPoint" />
          </mxGeometry>
        </mxCell>
        <mxCell id="NG-ote4vqKt_tPO70_aO-157" value="" style="endArrow=none;html=1;rounded=0;exitX=1;exitY=1;exitDx=0;exitDy=0;entryX=0;entryY=0;entryDx=0;entryDy=0;" edge="1" parent="1" source="NG-ote4vqKt_tPO70_aO-19" target="NG-ote4vqKt_tPO70_aO-5">
          <mxGeometry width="50" height="50" relative="1" as="geometry">
            <mxPoint x="310" y="280" as="sourcePoint" />
            <mxPoint x="360" y="230" as="targetPoint" />
          </mxGeometry>
        </mxCell>
        <mxCell id="NG-ote4vqKt_tPO70_aO-158" value="" style="endArrow=none;html=1;rounded=0;exitX=1;exitY=1;exitDx=0;exitDy=0;entryX=0.25;entryY=0;entryDx=0;entryDy=0;" edge="1" parent="1" source="NG-ote4vqKt_tPO70_aO-20" target="NG-ote4vqKt_tPO70_aO-5">
          <mxGeometry width="50" height="50" relative="1" as="geometry">
            <mxPoint x="400" y="270" as="sourcePoint" />
            <mxPoint x="450" y="220" as="targetPoint" />
          </mxGeometry>
        </mxCell>
        <mxCell id="NG-ote4vqKt_tPO70_aO-159" value="" style="endArrow=none;html=1;rounded=0;exitX=1;exitY=1;exitDx=0;exitDy=0;entryX=0.25;entryY=0;entryDx=0;entryDy=0;" edge="1" parent="1" source="NG-ote4vqKt_tPO70_aO-24" target="NG-ote4vqKt_tPO70_aO-5">
          <mxGeometry width="50" height="50" relative="1" as="geometry">
            <mxPoint x="410" y="270" as="sourcePoint" />
            <mxPoint x="460" y="220" as="targetPoint" />
          </mxGeometry>
        </mxCell>
        <mxCell id="NG-ote4vqKt_tPO70_aO-160" value="" style="endArrow=none;html=1;rounded=0;exitX=1;exitY=1;exitDx=0;exitDy=0;entryX=0.25;entryY=0;entryDx=0;entryDy=0;" edge="1" parent="1" source="NG-ote4vqKt_tPO70_aO-32" target="NG-ote4vqKt_tPO70_aO-5">
          <mxGeometry width="50" height="50" relative="1" as="geometry">
            <mxPoint x="430" y="230" as="sourcePoint" />
            <mxPoint x="480" y="180" as="targetPoint" />
          </mxGeometry>
        </mxCell>
        <mxCell id="NG-ote4vqKt_tPO70_aO-161" value="" style="endArrow=none;html=1;rounded=0;entryX=1;entryY=1;entryDx=0;entryDy=0;exitX=0.5;exitY=0;exitDx=0;exitDy=0;" edge="1" parent="1" source="NG-ote4vqKt_tPO70_aO-5" target="NG-ote4vqKt_tPO70_aO-37">
          <mxGeometry width="50" height="50" relative="1" as="geometry">
            <mxPoint x="450" y="230" as="sourcePoint" />
            <mxPoint x="500" y="180" as="targetPoint" />
          </mxGeometry>
        </mxCell>
        <mxCell id="NG-ote4vqKt_tPO70_aO-162" value="" style="endArrow=none;html=1;rounded=0;exitX=0.5;exitY=0;exitDx=0;exitDy=0;" edge="1" parent="1" source="NG-ote4vqKt_tPO70_aO-5" target="NG-ote4vqKt_tPO70_aO-30">
          <mxGeometry width="50" height="50" relative="1" as="geometry">
            <mxPoint x="480" y="240" as="sourcePoint" />
            <mxPoint x="530" y="200" as="targetPoint" />
          </mxGeometry>
        </mxCell>
        <mxCell id="NG-ote4vqKt_tPO70_aO-163" value="" style="endArrow=none;html=1;rounded=0;entryX=0;entryY=1;entryDx=0;entryDy=0;exitX=0.75;exitY=0;exitDx=0;exitDy=0;" edge="1" parent="1" source="NG-ote4vqKt_tPO70_aO-5" target="NG-ote4vqKt_tPO70_aO-27">
          <mxGeometry width="50" height="50" relative="1" as="geometry">
            <mxPoint x="470" y="210" as="sourcePoint" />
            <mxPoint x="520" y="160" as="targetPoint" />
          </mxGeometry>
        </mxCell>
        <mxCell id="NG-ote4vqKt_tPO70_aO-164" value="" style="endArrow=none;html=1;rounded=0;entryX=0;entryY=1;entryDx=0;entryDy=0;exitX=0.75;exitY=0;exitDx=0;exitDy=0;" edge="1" parent="1" source="NG-ote4vqKt_tPO70_aO-5" target="NG-ote4vqKt_tPO70_aO-33">
          <mxGeometry width="50" height="50" relative="1" as="geometry">
            <mxPoint x="510" y="270" as="sourcePoint" />
            <mxPoint x="560" y="220" as="targetPoint" />
          </mxGeometry>
        </mxCell>
        <mxCell id="NG-ote4vqKt_tPO70_aO-165" value="" style="endArrow=none;html=1;rounded=0;entryX=0;entryY=1;entryDx=0;entryDy=0;exitX=0.75;exitY=0;exitDx=0;exitDy=0;" edge="1" parent="1" source="NG-ote4vqKt_tPO70_aO-5" target="NG-ote4vqKt_tPO70_aO-31">
          <mxGeometry width="50" height="50" relative="1" as="geometry">
            <mxPoint x="500" y="280" as="sourcePoint" />
            <mxPoint x="550" y="230" as="targetPoint" />
          </mxGeometry>
        </mxCell>
        <mxCell id="NG-ote4vqKt_tPO70_aO-166" value="" style="endArrow=none;html=1;rounded=0;entryX=0;entryY=1;entryDx=0;entryDy=0;exitX=1;exitY=0;exitDx=0;exitDy=0;" edge="1" parent="1" source="NG-ote4vqKt_tPO70_aO-5" target="NG-ote4vqKt_tPO70_aO-22">
          <mxGeometry width="50" height="50" relative="1" as="geometry">
            <mxPoint x="540" y="300" as="sourcePoint" />
            <mxPoint x="590" y="250" as="targetPoint" />
          </mxGeometry>
        </mxCell>
        <mxCell id="NG-ote4vqKt_tPO70_aO-167" value="" style="endArrow=none;html=1;rounded=0;entryX=0;entryY=1;entryDx=0;entryDy=0;exitX=1;exitY=0;exitDx=0;exitDy=0;" edge="1" parent="1" source="NG-ote4vqKt_tPO70_aO-5" target="NG-ote4vqKt_tPO70_aO-28">
          <mxGeometry width="50" height="50" relative="1" as="geometry">
            <mxPoint x="540" y="300" as="sourcePoint" />
            <mxPoint x="590" y="250" as="targetPoint" />
          </mxGeometry>
        </mxCell>
        <mxCell id="NG-ote4vqKt_tPO70_aO-168" value="" style="endArrow=none;html=1;rounded=0;entryX=0;entryY=0.5;entryDx=0;entryDy=0;exitX=1;exitY=1;exitDx=0;exitDy=0;" edge="1" parent="1" source="NG-ote4vqKt_tPO70_aO-12" target="NG-ote4vqKt_tPO70_aO-72">
          <mxGeometry width="50" height="50" relative="1" as="geometry">
            <mxPoint x="1000" y="510" as="sourcePoint" />
            <mxPoint x="1050" y="460" as="targetPoint" />
          </mxGeometry>
        </mxCell>
        <mxCell id="NG-ote4vqKt_tPO70_aO-169" value="" style="endArrow=none;html=1;rounded=0;entryX=0;entryY=0.5;entryDx=0;entryDy=0;exitX=1;exitY=0.75;exitDx=0;exitDy=0;" edge="1" parent="1" source="NG-ote4vqKt_tPO70_aO-12" target="NG-ote4vqKt_tPO70_aO-71">
          <mxGeometry width="50" height="50" relative="1" as="geometry">
            <mxPoint x="1000" y="450" as="sourcePoint" />
            <mxPoint x="1050" y="400" as="targetPoint" />
          </mxGeometry>
        </mxCell>
        <mxCell id="NG-ote4vqKt_tPO70_aO-170" value="" style="endArrow=none;html=1;rounded=0;exitX=1;exitY=0.5;exitDx=0;exitDy=0;entryX=0;entryY=0.5;entryDx=0;entryDy=0;" edge="1" parent="1" source="NG-ote4vqKt_tPO70_aO-12" target="NG-ote4vqKt_tPO70_aO-70">
          <mxGeometry width="50" height="50" relative="1" as="geometry">
            <mxPoint x="990" y="380" as="sourcePoint" />
            <mxPoint x="1040" y="330" as="targetPoint" />
          </mxGeometry>
        </mxCell>
        <mxCell id="NG-ote4vqKt_tPO70_aO-171" value="" style="endArrow=none;html=1;rounded=0;exitX=1;exitY=0.5;exitDx=0;exitDy=0;entryX=0;entryY=0.5;entryDx=0;entryDy=0;" edge="1" parent="1" source="NG-ote4vqKt_tPO70_aO-12" target="NG-ote4vqKt_tPO70_aO-69">
          <mxGeometry width="50" height="50" relative="1" as="geometry">
            <mxPoint x="1000" y="330" as="sourcePoint" />
            <mxPoint x="1050" y="280" as="targetPoint" />
          </mxGeometry>
        </mxCell>
        <mxCell id="NG-ote4vqKt_tPO70_aO-172" value="" style="endArrow=none;html=1;rounded=0;exitX=1;exitY=0.25;exitDx=0;exitDy=0;entryX=0;entryY=0.5;entryDx=0;entryDy=0;" edge="1" parent="1" source="NG-ote4vqKt_tPO70_aO-12" target="NG-ote4vqKt_tPO70_aO-68">
          <mxGeometry width="50" height="50" relative="1" as="geometry">
            <mxPoint x="1010" y="240" as="sourcePoint" />
            <mxPoint x="1060" y="190" as="targetPoint" />
          </mxGeometry>
        </mxCell>
        <mxCell id="NG-ote4vqKt_tPO70_aO-173" value="" style="endArrow=none;html=1;rounded=0;entryX=0;entryY=0.5;entryDx=0;entryDy=0;exitX=1;exitY=0;exitDx=0;exitDy=0;" edge="1" parent="1" source="NG-ote4vqKt_tPO70_aO-12" target="NG-ote4vqKt_tPO70_aO-67">
          <mxGeometry width="50" height="50" relative="1" as="geometry">
            <mxPoint x="960" y="250" as="sourcePoint" />
            <mxPoint x="1010" y="200" as="targetPoint" />
          </mxGeometry>
        </mxCell>
        <mxCell id="NG-ote4vqKt_tPO70_aO-174" value="&lt;font style=&quot;font-size: 14px;&quot;&gt;PK&lt;/font&gt;" style="text;html=1;align=center;verticalAlign=middle;resizable=0;points=[];autosize=1;strokeColor=none;fillColor=none;fontSize=25;" vertex="1" parent="1">
          <mxGeometry x="-295" y="130" width="40" height="40" as="geometry" />
        </mxCell>
        <mxCell id="NG-ote4vqKt_tPO70_aO-175" value="PK" style="text;html=1;align=center;verticalAlign=middle;resizable=0;points=[];autosize=1;strokeColor=none;fillColor=none;" vertex="1" parent="1">
          <mxGeometry x="-795" y="506.25" width="40" height="30" as="geometry" />
        </mxCell>
        <mxCell id="NG-ote4vqKt_tPO70_aO-176" value="N:1" style="text;html=1;align=center;verticalAlign=middle;resizable=0;points=[];autosize=1;strokeColor=none;fillColor=none;fontSize=14;" vertex="1" parent="1">
          <mxGeometry x="20" y="270" width="50" height="30" as="geometry" />
        </mxCell>
        <mxCell id="NG-ote4vqKt_tPO70_aO-177" value="1:N" style="text;html=1;align=center;verticalAlign=middle;resizable=0;points=[];autosize=1;strokeColor=none;fillColor=none;fontSize=14;" vertex="1" parent="1">
          <mxGeometry x="480" y="492.5" width="50" height="30" as="geometry" />
        </mxCell>
        <mxCell id="NG-ote4vqKt_tPO70_aO-178" value="1:N" style="text;html=1;align=center;verticalAlign=middle;resizable=0;points=[];autosize=1;strokeColor=none;fillColor=none;fontSize=14;" vertex="1" parent="1">
          <mxGeometry x="687.5" y="266.25" width="50" height="30" as="geometry" />
        </mxCell>
        <mxCell id="NG-ote4vqKt_tPO70_aO-179" value="1:N" style="text;html=1;align=center;verticalAlign=middle;resizable=0;points=[];autosize=1;strokeColor=none;fillColor=none;fontSize=14;" vertex="1" parent="1">
          <mxGeometry x="1040" y="508.75" width="50" height="30" as="geometry" />
        </mxCell>
        <mxCell id="NG-ote4vqKt_tPO70_aO-180" value="N:1" style="text;html=1;align=center;verticalAlign=middle;resizable=0;points=[];autosize=1;strokeColor=none;fillColor=none;fontSize=14;" vertex="1" parent="1">
          <mxGeometry x="27.5" y="130" width="50" height="30" as="geometry" />
        </mxCell>
        <mxCell id="NG-ote4vqKt_tPO70_aO-181" value="FK" style="text;html=1;align=center;verticalAlign=middle;resizable=0;points=[];autosize=1;strokeColor=none;fillColor=none;" vertex="1" parent="1">
          <mxGeometry x="-367.5" y="5" width="40" height="30" as="geometry" />
        </mxCell>
        <mxCell id="NG-ote4vqKt_tPO70_aO-185" style="edgeStyle=orthogonalEdgeStyle;rounded=0;orthogonalLoop=1;jettySize=auto;html=1;exitX=1;exitY=0.5;exitDx=0;exitDy=0;entryX=0.5;entryY=0;entryDx=0;entryDy=0;fontSize=14;" edge="1" parent="1" source="NG-ote4vqKt_tPO70_aO-184" target="NG-ote4vqKt_tPO70_aO-12">
          <mxGeometry relative="1" as="geometry" />
        </mxCell>
        <mxCell id="NG-ote4vqKt_tPO70_aO-184" value="Generan" style="rhombus;whiteSpace=wrap;html=1;" vertex="1" parent="1">
          <mxGeometry x="415" y="-180" width="65" height="70" as="geometry" />
        </mxCell>
        <mxCell id="NG-ote4vqKt_tPO70_aO-186" value="1:N" style="text;html=1;align=center;verticalAlign=middle;resizable=0;points=[];autosize=1;strokeColor=none;fillColor=none;fontSize=14;" vertex="1" parent="1">
          <mxGeometry x="-340" y="525" width="50" height="30" as="geometry" />
        </mxCell>
        <mxCell id="NG-ote4vqKt_tPO70_aO-187" value="ID_Rendicion" style="ellipse;whiteSpace=wrap;html=1;" vertex="1" parent="1">
          <mxGeometry x="-725" y="190" width="120" height="30" as="geometry" />
        </mxCell>
        <mxCell id="NG-ote4vqKt_tPO70_aO-188" value="FK" style="text;html=1;align=center;verticalAlign=middle;resizable=0;points=[];autosize=1;strokeColor=none;fillColor=none;" vertex="1" parent="1">
          <mxGeometry x="-800" y="190" width="40" height="30" as="geometry" />
        </mxCell>
        <mxCell id="NG-ote4vqKt_tPO70_aO-189" value="1:N" style="text;html=1;align=center;verticalAlign=middle;resizable=0;points=[];autosize=1;strokeColor=none;fillColor=none;fontSize=14;" vertex="1" parent="1">
          <mxGeometry x="-7.5" y="518.75" width="50" height="30" as="geometry" />
        </mxCell>
        <mxCell id="NG-ote4vqKt_tPO70_aO-190" value="1:N" style="text;html=1;align=center;verticalAlign=middle;resizable=0;points=[];autosize=1;strokeColor=none;fillColor=none;fontSize=14;" vertex="1" parent="1">
          <mxGeometry x="422.5" y="-220" width="50" height="30" as="geometry" />
        </mxCell>
        <mxCell id="e-YCNxBzetaaRjMtd54l-1" value="&lt;font style=&quot;vertical-align: inherit;&quot;&gt;&lt;font style=&quot;vertical-align: inherit;&quot;&gt;&lt;font style=&quot;vertical-align: inherit;&quot;&gt;&lt;font style=&quot;vertical-align: inherit;&quot;&gt;Usuario&lt;/font&gt;&lt;/font&gt;&lt;/font&gt;&lt;/font&gt;" style="rounded=0;whiteSpace=wrap;html=1;fillColor=#f8cecc;strokeColor=#b85450;" vertex="1" parent="1">
          <mxGeometry x="-127.5" y="85" width="120" height="50" as="geometry" />
        </mxCell>
        <mxCell id="e-YCNxBzetaaRjMtd54l-2" value="&lt;font style=&quot;vertical-align: inherit;&quot;&gt;&lt;font style=&quot;vertical-align: inherit;&quot;&gt;Tipo_Usuario&lt;/font&gt;&lt;/font&gt;" style="rounded=0;whiteSpace=wrap;html=1;fillColor=#f8cecc;strokeColor=#b85450;" vertex="1" parent="1">
          <mxGeometry x="500" y="361.25" width="100" height="50" as="geometry" />
        </mxCell>
        <mxCell id="e-YCNxBzetaaRjMtd54l-3" value="solo aplica con tipo de USUARIO no SOCIO" style="text;html=1;align=center;verticalAlign=middle;resizable=0;points=[];autosize=1;strokeColor=#b85450;fillColor=#f8cecc;" vertex="1" parent="1">
          <mxGeometry x="155" y="546.25" width="260" height="30" as="geometry" />
        </mxCell>
        <mxCell id="e-YCNxBzetaaRjMtd54l-4" value="Tengo dudas en esta relacion, a que tipo de Usuario corresponde" style="text;html=1;align=center;verticalAlign=middle;resizable=0;points=[];autosize=1;strokeColor=#b85450;fillColor=#f8cecc;fontSize=14;" vertex="1" parent="1">
          <mxGeometry x="-162.5" y="371.25" width="430" height="30" as="geometry" />
        </mxCell>
      </root>
    </mxGraphModel>
  </diagram>
</mxfile>
